<svg width="400" height="300" viewBox="0 0 400 300" fill="none" xmlns="http://www.w3.org/2000/svg">
  <!-- Background Circle -->
  <circle cx="200" cy="150" r="120" fill="url(#gradient1)" opacity="0.1"/>
  
  <!-- Main Video Frame -->
  <rect x="120" y="100" width="160" height="100" rx="12" fill="url(#gradient2)" stroke="url(#gradient3)" stroke-width="2"/>
  
  <!-- Video Screen -->
  <rect x="130" y="110" width="140" height="80" rx="8" fill="#1e40af" opacity="0.8"/>
  
  <!-- Video Camera Icon -->
  <circle cx="200" cy="150" r="25" fill="white" opacity="0.9"/>
  <circle cx="200" cy="150" r="20" fill="#3b82f6"/>
  <circle cx="200" cy="150" r="15" fill="#1e40af"/>
  <circle cx="200" cy="150" r="8" fill="white"/>
  
  <!-- Connection Lines -->
  <path d="M 80 120 Q 60 100 40 120" stroke="url(#gradient4)" stroke-width="3" fill="none" opacity="0.6"/>
  <path d="M 320 120 Q 340 100 360 120" stroke="url(#gradient4)" stroke-width="3" fill="none" opacity="0.6"/>
  <path d="M 80 180 Q 60 200 40 180" stroke="url(#gradient4)" stroke-width="3" fill="none" opacity="0.6"/>
  <path d="M 320 180 Q 340 200 360 180" stroke="url(#gradient4)" stroke-width="3" fill="none" opacity="0.6"/>
  
  <!-- Floating Elements -->
  <circle cx="60" cy="80" r="8" fill="url(#gradient5)" opacity="0.7"/>
  <circle cx="340" cy="80" r="8" fill="url(#gradient5)" opacity="0.7"/>
  <circle cx="60" cy="220" r="8" fill="url(#gradient5)" opacity="0.7"/>
  <circle cx="340" cy="220" r="8" fill="url(#gradient5)" opacity="0.7"/>
  
  <!-- Small Video Frames -->
  <rect x="50" y="60" width="40" height="30" rx="6" fill="url(#gradient6)" opacity="0.8"/>
  <rect x="310" y="60" width="40" height="30" rx="6" fill="url(#gradient6)" opacity="0.8"/>
  <rect x="50" y="210" width="40" height="30" rx="6" fill="url(#gradient6)" opacity="0.8"/>
  <rect x="310" y="210" width="40" height="30" rx="6" fill="url(#gradient6)" opacity="0.8"/>
  
  <!-- Gradients -->
  <defs>
    <linearGradient id="gradient1" x1="0%" y1="0%" x2="100%" y2="100%">
      <stop offset="0%" style="stop-color:#3b82f6;stop-opacity:1" />
      <stop offset="100%" style="stop-color:#1e40af;stop-opacity:1" />
    </linearGradient>
    
    <linearGradient id="gradient2" x1="0%" y1="0%" x2="100%" y2="100%">
      <stop offset="0%" style="stop-color:#ffffff;stop-opacity:1" />
      <stop offset="100%" style="stop-color:#f8fafc;stop-opacity:1" />
    </linearGradient>
    
    <linearGradient id="gradient3" x1="0%" y1="0%" x2="100%" y2="100%">
      <stop offset="0%" style="stop-color:#3b82f6;stop-opacity:1" />
      <stop offset="100%" style="stop-color:#1e40af;stop-opacity:1" />
    </linearGradient>
    
    <linearGradient id="gradient4" x1="0%" y1="0%" x2="100%" y2="100%">
      <stop offset="0%" style="stop-color:#10b981;stop-opacity:1" />
      <stop offset="100%" style="stop-color:#059669;stop-opacity:1" />
    </linearGradient>
    
    <linearGradient id="gradient5" x1="0%" y1="0%" x2="100%" y2="100%">
      <stop offset="0%" style="stop-color:#f59e0b;stop-opacity:1" />
      <stop offset="100%" style="stop-color:#d97706;stop-opacity:1" />
    </linearGradient>
    
    <linearGradient id="gradient6" x1="0%" y1="0%" x2="100%" y2="100%">
      <stop offset="0%" style="stop-color:#8b5cf6;stop-opacity:1" />
      <stop offset="100%" style="stop-color:#7c3aed;stop-opacity:1" />
    </linearGradient>
  </defs>
</svg>
